<svg width="40" height="40" viewBox="0 0 40 40" fill="none" xmlns="http://www.w3.org/2000/svg">
<g id="Bell Icon">
<rect id="Background" width="40" height="40" fill="#D9D9D9"/>
<path id="Vector" d="M21.7575 31C21.5158 31.4167 21.1688 31.7626 20.7513 32.0031C20.3338 32.2436 19.8605 32.3701 19.3787 32.3701C18.897 32.3701 18.4237 32.2436 18.0062 32.0031C17.5887 31.7626 17.2417 31.4167 17 31" stroke="black" stroke-width="2" stroke-linecap="round" stroke-linejoin="round"/>
<path id="Vector_2" d="M27.75 15C27.75 12.812 26.8808 10.7135 25.3336 9.16637C23.7865 7.61919 21.688 6.75 19.5 6.75C17.312 6.75 15.2135 7.61919 13.6664 9.16637C12.1192 10.7135 11.25 12.812 11.25 15C11.25 24.625 7.125 27.375 7.125 27.375H31.875C31.875 27.375 27.75 24.625 27.75 15Z" stroke="black" stroke-width="2" stroke-linecap="round" stroke-linejoin="round"/>
</g>
</svg>
