<svg width="40" height="40" viewBox="0 0 40 40" fill="none" xmlns="http://www.w3.org/2000/svg">
<g id="Book Icon">
<rect id="Background" width="40" height="40" fill="#D9D9D9"/>
<path id="Vector" d="M19.5 32.375C19.5 32.375 15.0573 29.6667 12.5311 29.6667C11.2125 29.6667 8.9459 30.575 7.08035 31.4433C5.68682 32.0919 4.02685 31.0845 4.04839 29.5476L4.28354 12.7695C4.2914 12.2084 4.5323 11.6773 4.97558 11.3332C6.36008 10.2584 9.6407 7.99999 12.7609 8.00005C16.8552 8.00013 19.5 11.1944 19.5 11.1944M19.5 32.375C19.5 32.375 23.493 29.6667 26.0191 29.6667C27.4113 29.6667 29.9965 30.679 32.0371 31.5879C33.4056 32.1975 35 31.2144 35 29.7162L35 12.7769C35 12.2115 34.7628 11.6733 34.3153 11.3277C32.9204 10.2509 29.5791 8.00001 26.0191 8C21.3399 7.99999 19.5 11.1944 19.5 11.1944M19.5 32.375V11.1944M19.5 32.375L25.7572 31.1752C25.9311 31.1419 26.1086 31.1318 26.2851 31.1452L32.0192 31.58M19.5 32.375L12.7565 31.1654C12.6067 31.1386 12.4544 31.1289 12.3024 31.1366L7.18336 31.3955" stroke="black" stroke-width="2" stroke-linecap="round" stroke-linejoin="round"/>
</g>
</svg>
