<svg width="40" height="40" viewBox="0 0 40 40" fill="none" xmlns="http://www.w3.org/2000/svg">
<g id="Heart Icon">
<rect id="Background" width="40" height="40" fill="#D9D9D9"/>
<path id="Vector" d="M29.9994 10.3554L29.9996 10.3555C31.9455 11.8734 32.938 13.8302 32.9989 16.2336L32.9989 16.2339C33.0239 17.2085 32.6149 18.1102 32.1716 18.8986C31.1691 20.6809 29.7842 22.1332 28.5022 23.3658L28.5019 23.3661C26.2592 25.5244 23.5707 27.654 20.2703 29.8774L20.2612 29.8835L20.2523 29.8898C20.1379 29.9706 20.0802 30 20.0011 30C19.9476 30 19.8832 29.9867 19.7975 29.9299C16.0812 27.4198 13.2562 25.1423 10.8823 22.759L10.8817 22.7583C9.60146 21.4754 8.62238 20.2461 7.87535 19L7.8751 18.9996C7.22389 17.9144 6.9482 16.8286 7.00797 15.731C7.06816 14.6256 7.47262 13.4423 8.28642 12.1803C9.39312 10.4679 10.9467 9.44104 12.9575 9.09649L12.9579 9.09643C15.3658 8.68288 17.7815 9.62494 19.2201 11.4307L20.006 12.4172L20.7873 11.427C20.9719 11.1931 21.1696 10.9768 21.3815 10.7748L21.3816 10.7747C22.5476 9.66318 24.2151 9.00609 25.9546 9.00609C27.4579 9.00609 28.894 9.49287 29.9994 10.3554Z" stroke="black" stroke-width="2"/>
</g>
</svg>
