<svg width="40" height="40" viewBox="0 0 40 40" fill="none" xmlns="http://www.w3.org/2000/svg">
<g id="User Icon">
<rect id="Background" width="40" height="40" fill="#D9D9D9"/>
<path id="Ellipse 10" d="M35.4088 28C35.4088 29.9561 33.9664 31.9384 31.1684 33.4893C28.4047 35.0212 24.5189 36 20.1722 36C15.8254 36 11.9396 35.0212 9.17595 33.4893C6.37793 31.9384 4.93555 29.9561 4.93555 28C4.93555 26.0439 6.37793 24.0616 9.17595 22.5107C11.9396 20.9788 15.8254 20 20.1722 20C24.5189 20 28.4047 20.9788 31.1684 22.5107C33.9664 24.0616 35.4088 26.0439 35.4088 28Z" fill="#D9D9D9" stroke="black" stroke-width="2"/>
<path id="Ellipse 11" d="M28.5219 13.5C28.5219 18.2097 24.7691 22 20.1736 22C15.578 22 11.8252 18.2097 11.8252 13.5C11.8252 8.79035 15.578 5 20.1736 5C24.7691 5 28.5219 8.79035 28.5219 13.5Z" fill="#D9D9D9" stroke="black" stroke-width="2"/>
</g>
</svg>
